<?xml version="1.0" encoding="utf-8"?>
<!-- Generator: Adobe Illustrator 21.0.0, SVG Export Plug-In . SVG Version: 6.00 Build 0)  -->
<svg version="1.1" id="Layer_1" xmlns="http://www.w3.org/2000/svg" xmlns:xlink="http://www.w3.org/1999/xlink" x="0px" y="0px"
	 viewBox="0 0 6 9.6" style="enable-background:new 0 0 6 9.6;" xml:space="preserve">
<style type="text/css">
	.st0{fill:#FBB03B;}
</style>
<path class="st0" d="M3,0C1.3,0,0,1.3,0,3c0,3,3,6.6,3,6.6S6,6,6,3C6,1.3,4.7,0,3,0z M3,4.8C2,4.8,1.2,4,1.2,3S2,1.2,3,1.2
	S4.8,2,4.8,3S4,4.8,3,4.8z M1.8,3c0-0.6,0.5-1.2,1.2-1.2S4.2,2.4,4.2,3c0,0.6-0.5,1.2-1.2,1.2S1.8,3.6,1.8,3z"/>
</svg>
