<?xml version="1.0" encoding="utf-8"?>
<!-- Generator: Adobe Illustrator 21.0.0, SVG Export Plug-In . SVG Version: 6.00 Build 0)  -->
<svg version="1.1" id="Layer_1" xmlns="http://www.w3.org/2000/svg" xmlns:xlink="http://www.w3.org/1999/xlink" x="0px" y="0px"
	 viewBox="0 0 15.3 15.3" style="enable-background:new 0 0 15.3 15.3;" xml:space="preserve">
<style type="text/css">
	.st0{fill:#FBB03B;}
</style>
<path class="st0" d="M7.7,0C3.4,0,0,3.4,0,7.7s3.4,7.7,7.7,7.7s7.7-3.4,7.7-7.7S11.9,0,7.7,0z M12,10.2c0.1-0.6,0.2-1.3,0.3-2h2
	c-0.1,0.7-0.2,1.4-0.5,2H12z M3.3,5.1c-0.1,0.6-0.2,1.3-0.3,2H1c0.1-0.7,0.2-1.4,0.5-2H3.3z M11,5.1c0.2,0.7,0.2,1.3,0.3,2H8.2v-2
	H11z M8.2,4.1v-3c0.2,0.1,0.5,0.2,0.7,0.3C9.3,1.7,9.7,2.2,10,2.8c0.2,0.4,0.4,0.8,0.6,1.3H8.2L8.2,4.1z M5.3,2.8
	c0.3-0.6,0.8-1,1.2-1.3c0.2-0.2,0.5-0.3,0.7-0.3v3H4.7C4.8,3.6,5.1,3.2,5.3,2.8L5.3,2.8z M7.2,5.1v2H4.1c0-0.7,0.1-1.4,0.3-2H7.2z
	 M1.5,10.2C1.3,9.6,1.1,8.9,1,8.2h2c0,0.7,0.1,1.4,0.3,2H1.5z M4.1,8.2h3.1v2H4.4C4.2,9.6,4.1,8.9,4.1,8.2z M7.2,11.2v3
	c-0.2-0.1-0.5-0.2-0.7-0.3c-0.4-0.3-0.8-0.8-1.2-1.3c-0.2-0.4-0.4-0.8-0.6-1.3H7.2z M10,12.6c-0.3,0.6-0.8,1-1.2,1.3
	c-0.2,0.2-0.5,0.3-0.7,0.3v-3h2.5C10.5,11.7,10.3,12.2,10,12.6z M8.2,10.2v-2h3.1c0,0.7-0.1,1.4-0.3,2H8.2z M12.3,7.2
	c0-0.7-0.1-1.4-0.3-2h1.8c0.3,0.7,0.4,1.3,0.5,2H12.3z M13.3,4.1h-1.5c-0.3-0.9-0.7-1.8-1.2-2.4C11.2,2,11.8,2.4,12.4,3
	C12.7,3.3,13,3.7,13.3,4.1z M3,3c0.5-0.5,1.2-1,1.8-1.3C4.3,2.3,3.9,3.2,3.6,4.1H2.1C2.3,3.7,2.6,3.3,3,3z M2.1,11.2h1.5
	c0.3,0.9,0.7,1.8,1.2,2.4c-0.7-0.3-1.3-0.8-1.8-1.3C2.6,12,2.3,11.6,2.1,11.2z M12.4,12.4c-0.5,0.5-1.2,1-1.8,1.3
	c0.5-0.7,0.9-1.5,1.2-2.4h1.5C13,11.6,12.7,12,12.4,12.4z"/>
</svg>
