<?xml version="1.0" encoding="utf-8"?>
<!-- Generator: Adobe Illustrator 21.0.0, SVG Export Plug-In . SVG Version: 6.00 Build 0)  -->
<svg version="1.1" id="Layer_1" xmlns="http://www.w3.org/2000/svg" xmlns:xlink="http://www.w3.org/1999/xlink" x="0px" y="0px"
	 viewBox="0 0 92.4 70.1" style="enable-background:new 0 0 92.4 70.1;" xml:space="preserve">
<style type="text/css">
	.st0{fill-rule:evenodd;clip-rule:evenodd;fill:#FBB03B;}
</style>
<path class="st0" d="M86.8,24.1v10.3c0,2.1-0.9,4.1-2.3,5.5c-1.4,1.4-3.3,2.3-5.5,2.3H7.7c-2.1,0-4.1-0.9-5.5-2.3
	C0.9,38.5,0,36.5,0,34.4V17c0-2.1,0.9-4.1,2.3-5.5c1.4-1.4,3.3-2.3,5.5-2.3h59.5v2.2H7.7c-1.5,0-2.9,0.6-3.9,1.6
	c-1,1-1.6,2.4-1.6,3.9v17.4c0,1.5,0.6,2.9,1.6,3.9c1,1,2.4,1.6,3.9,1.6h71.4c1.5,0,2.9-0.6,3.9-1.6c1-1,1.6-2.4,1.6-3.9V24.1H86.8
	L86.8,24.1z M84.7,7.4L84.7,7.4c-0.7-0.7-1.4-1.1-2.3-1.3V4L84,3.1l0,0l2.1-1.2L85,0l-2.1,1.2h0l-0.5,0.3V0h-2.2v1.4l-0.5-0.3h0
	L77.7,0l-1.1,1.9l2.1,1.2l0,0L80.3,4v2.1c-0.8,0.2-1.6,0.6-2.2,1.2L78,7.4l-1.8-1.1l0-1.8h0V2.1H74v2.4h0v0.5l-1.1-0.7l-1.1,1.9
	L72.9,7l-2.6,1.5l1.1,1.9l3.6-2.1l1.8,1.1c-0.1,0.4-0.2,0.9-0.2,1.3c0,0.5,0.1,0.9,0.2,1.3l-1.8,1.1l-3.6-2.1l-1.1,1.9l2.6,1.5
	l-1.1,0.7l1.1,1.9l1.2-0.7v0.5h0V19h2.2v-2.4h0l0-1.8l1.8-1.1l0.1,0.1c0.6,0.6,1.3,1,2.2,1.2v2.1l-1.5,0.9l0,0l-2.1,1.2l1.1,1.9
	l2.1-1.2h0l0.5-0.3v1.4h2.2v-1.4l0.5,0.3h0l2.1,1.2l1.1-1.9L84,18.1l0,0l-1.5-0.9v-2.1c0.8-0.2,1.6-0.6,2.2-1.2l0.1-0.1l1.8,1.1v1.8
	h0V19h2.2v-2.4h0v-0.5l1.2,0.7l1.1-1.9l-1.2-0.7l2.6-1.5l-1.1-1.9l-3.6,2.1l-1.8-1.1c0.1-0.4,0.2-0.9,0.2-1.3c0-0.5-0.1-0.9-0.2-1.3
	l1.8-1.1l3.6,2.1l1.1-1.9L89.8,7l1.2-0.7L90,4.4l-1.2,0.7V4.6h0V2.1h-2.2v2.4h0v1.8L84.7,7.4L84.7,7.4z M83.1,8.9
	c-0.4-0.4-1.1-0.7-1.7-0.7c-0.7,0-1.3,0.3-1.7,0.7c-0.4,0.4-0.7,1.1-0.7,1.7c0,0.7,0.3,1.3,0.7,1.7c0.4,0.4,1.1,0.7,1.7,0.7
	c0.7,0,1.3-0.3,1.7-0.7c0.4-0.4,0.7-1.1,0.7-1.7C83.8,9.9,83.5,9.3,83.1,8.9L83.1,8.9z M54.8,70.1c-0.9-0.5-1.6-1.3-2.1-2.1v0
	c-0.5-0.9-0.8-1.9-0.8-2.9c0-1,0.3-2,0.8-2.9c0.5-0.9,1.2-1.6,2.1-2.1c0.6-0.3,1-0.8,1.3-1.3c0.3-0.5,0.5-1.2,0.5-1.8
	c0-0.7-0.2-1.3-0.5-1.8l0,0c-0.3-0.5-0.8-1-1.3-1.3c-0.9-0.5-1.6-1.3-2.1-2.1l0,0c-0.5-0.9-0.8-1.9-0.8-2.9c0-1,0.3-2,0.8-2.9l0,0
	c0.5-0.9,1.2-1.6,2.1-2.1l1.1,1.9c-0.6,0.3-1,0.8-1.3,1.3v0c-0.3,0.5-0.5,1.2-0.5,1.8c0,0.6,0.2,1.3,0.5,1.8v0
	c0.3,0.5,0.8,1,1.3,1.3c0.9,0.5,1.6,1.3,2.1,2.1v0c0.5,0.9,0.8,1.9,0.8,2.9c0,1-0.3,2-0.8,2.9c-0.5,0.9-1.2,1.6-2.1,2.1
	c-0.6,0.3-1,0.8-1.3,1.3c-0.3,0.5-0.5,1.2-0.5,1.8c0,0.7,0.2,1.3,0.5,1.8v0c0.3,0.5,0.8,1,1.3,1.3L54.8,70.1L54.8,70.1z M42.9,70.1
	c-0.9-0.5-1.6-1.3-2.1-2.1v0C40.2,67.1,40,66.1,40,65c0-1,0.3-2,0.8-2.9c0.5-0.9,1.2-1.6,2.1-2.1c0.6-0.3,1-0.8,1.3-1.3
	c0.3-0.5,0.5-1.2,0.5-1.8c0-0.7-0.2-1.3-0.5-1.8v0c-0.3-0.5-0.8-1-1.3-1.3c-0.9-0.5-1.6-1.3-2.1-2.1l0,0c-0.5-0.9-0.8-1.9-0.8-2.9
	c0-1,0.3-2,0.8-2.9l0,0c0.5-0.9,1.2-1.6,2.1-2.1l1.1,1.9c-0.6,0.3-1,0.8-1.3,1.3v0c-0.3,0.5-0.5,1.2-0.5,1.8c0,0.6,0.2,1.3,0.5,1.8
	v0c0.3,0.5,0.8,1,1.3,1.3c0.9,0.5,1.6,1.3,2.1,2.1v0c0.5,0.9,0.8,1.9,0.8,2.9c0,1-0.3,2-0.8,2.9c-0.5,0.9-1.2,1.6-2.1,2.1
	c-0.6,0.3-1,0.8-1.3,1.3c-0.3,0.5-0.5,1.2-0.5,1.8c0,0.7,0.2,1.3,0.5,1.8l0,0c0.3,0.5,0.8,1,1.3,1.3L42.9,70.1L42.9,70.1z M31,70.1
	c-0.9-0.5-1.6-1.3-2.1-2.1v0C28.3,67.1,28,66.1,28,65c0-1,0.3-2,0.8-2.9c0.5-0.9,1.2-1.6,2.1-2.1c0.6-0.3,1-0.8,1.3-1.3
	c0.3-0.5,0.5-1.2,0.5-1.8c0-0.7-0.2-1.3-0.5-1.8l0,0c-0.3-0.5-0.8-1-1.3-1.3c-0.9-0.5-1.6-1.3-2.1-2.1l0,0c-0.5-0.9-0.8-1.9-0.8-2.9
	c0-1,0.3-2,0.8-2.9l0,0c0.5-0.9,1.2-1.6,2.1-2.1l1.1,1.9c-0.6,0.3-1,0.8-1.3,1.3v0c-0.3,0.5-0.5,1.2-0.5,1.8c0,0.6,0.2,1.3,0.5,1.8
	v0c0.3,0.5,0.8,1,1.3,1.3c0.9,0.5,1.6,1.3,2.1,2.1v0c0.5,0.9,0.8,1.9,0.8,2.9c0,1-0.3,2-0.8,2.9c-0.5,0.9-1.2,1.6-2.1,2.1
	c-0.6,0.3-1,0.8-1.3,1.3c-0.3,0.5-0.5,1.2-0.5,1.8c0,0.7,0.2,1.3,0.5,1.8l0,0c0.3,0.5,0.8,1,1.3,1.3L31,70.1L31,70.1z M9.8,20.7v2.2
	h7v-2.2H9.8L9.8,20.7z M9.8,24.2v2.2h7v-2.2H9.8L9.8,24.2z M9.2,29.2H8.1v7.9h70.5v-7.9H9.2L9.2,29.2z M76.5,31.4H10.3v3.5h66.2
	V31.4z"/>
</svg>
