<?xml version="1.0" encoding="utf-8"?>
<!-- Generator: Adobe Illustrator 21.0.0, SVG Export Plug-In . SVG Version: 6.00 Build 0)  -->
<svg version="1.1" id="Layer_1" xmlns="http://www.w3.org/2000/svg" xmlns:xlink="http://www.w3.org/1999/xlink" x="0px" y="0px"
	 viewBox="0 0 16.2 24.7" style="enable-background:new 0 0 16.2 24.7;" xml:space="preserve">
<style type="text/css">
	.st0{fill-rule:evenodd;clip-rule:evenodd;fill:#FBB03B;}
</style>
<path class="st0" d="M15.1,12.6c0.4,0.6,0.6,1.3,0.8,1.9c0.2,0.7,0.3,1.4,0.3,2.1c0,2.2-0.9,4.3-2.4,5.7c-1.5,1.5-3.5,2.4-5.7,2.4
	c-2.2,0-4.2-0.9-5.7-2.4C0.9,20.9,0,18.9,0,16.6c0-0.7,0.1-1.4,0.3-2.1c0.2-0.7,0.5-1.3,0.8-1.9h0L8.1,0L15.1,12.6L15.1,12.6
	L15.1,12.6z M6.5,21.8L6.7,21c-0.4-0.1-0.9-0.4-1.2-0.6c-0.4-0.3-0.7-0.6-1-1l-0.6,0.5c0.3,0.4,0.7,0.8,1.2,1.1
	C5.5,21.4,6,21.6,6.5,21.8L6.5,21.8z M3.4,13.7L3.4,13.7c-0.2,0.4-0.4,0.9-0.6,1.3c-0.1,0.5-0.2,1-0.2,1.4c0,0.4,0,0.9,0.1,1.3
	c0.1,0.4,0.2,0.8,0.4,1.2L4,18.6c-0.2-0.3-0.3-0.7-0.4-1c-0.1-0.4-0.1-0.7-0.1-1.1c0-0.4,0.1-0.8,0.2-1.2c0.1-0.4,0.3-0.8,0.5-1.2
	l-0.3-0.2l0.3,0.2l3-5.4L6.4,8.3L3.4,13.7L3.4,13.7z M1.4,12.8L1.8,13c-0.3,0.6-0.6,1.1-0.7,1.8c-0.2,0.6-0.2,1.2-0.2,1.9
	c0,2,0.8,3.8,2.1,5.1c1.3,1.3,3.1,2.1,5.2,2.1c2,0,3.8-0.8,5.2-2.1c1.3-1.3,2.1-3.1,2.1-5.1c0-0.6-0.1-1.3-0.2-1.9
	c-0.2-0.6-0.4-1.2-0.7-1.8l0.3-0.2L14.4,13L8.1,1.6L1.8,13L1.4,12.8z"/>
</svg>
