<?xml version="1.0" encoding="utf-8"?>
<!-- Generator: Adobe Illustrator 21.0.0, SVG Export Plug-In . SVG Version: 6.00 Build 0)  -->
<svg version="1.1" id="Layer_1" xmlns="http://www.w3.org/2000/svg" xmlns:xlink="http://www.w3.org/1999/xlink" x="0px" y="0px"
	 viewBox="0 0 48.6 48.6" style="enable-background:new 0 0 48.6 48.6;" xml:space="preserve">
<style type="text/css">
	.st0{fill-rule:evenodd;clip-rule:evenodd;fill:#E6E6E5;}
	.st1{fill-rule:evenodd;clip-rule:evenodd;fill:#010101;}
	.st2{fill:#E6E6E5;}
</style>
<g>
	<path class="st0" d="M24.3,48.6C11.1,48.7,0,37.8,0,24.3C0,11,11,0,24.4,0c13.3,0,24.3,11.1,24.2,24.4
		C48.6,37.5,37.7,48.7,24.3,48.6z"/>
	<path class="st1" d="M47.6,24.3c0,12.9-10.5,23.3-23.4,23.2C11.4,47.6,1,37.1,1,24.2C1,11.4,11.5,1,24.4,1
		C37.2,1,47.6,11.5,47.6,24.3z"/>
	<path class="st2" d="M12.2,11.5c0.3,0.1,0.7,0.1,1.1,0c0.5-0.1,0.9-0.5,0.8-0.8c-0.1-0.3-0.5-0.4-1.1-0.4c-0.8-0.1-1.4-0.3-1.5-0.9
		c-0.2-0.7,0.3-1.3,1.2-1.5c0.5-0.1,0.9-0.1,1.1-0.1l0,0.6c-0.2,0-0.5-0.1-0.9,0c-0.5,0.1-0.7,0.4-0.7,0.7c0.1,0.3,0.5,0.4,1.1,0.5
		c0.8,0.1,1.3,0.3,1.5,0.9c0.2,0.7-0.2,1.3-1.3,1.6c-0.5,0.1-1,0.1-1.3,0L12.2,11.5z"/>
	<path class="st2" d="M20.5,8.9c-0.1-0.5-0.2-1.2-0.3-1.7l0,0c-0.1,0.5-0.2,1.1-0.3,1.7l-0.4,1.9l-0.6,0.1l-0.8-1.7
		c-0.2-0.5-0.5-1.1-0.7-1.6l0,0c0.1,0.5,0.1,1.2,0.2,1.8l0.1,1.7L17,11.1l-0.3-4.2l1-0.1l0.8,1.6c0.2,0.5,0.4,0.9,0.6,1.4l0,0
		c0.1-0.5,0.1-1,0.2-1.5l0.4-1.7l1-0.1l0.8,4.1l-0.8,0.1L20.5,8.9z"/>
	<path class="st2" d="M24.7,9.2l-0.4,1.2l-0.8,0L25,6.2l1,0.1l1.2,4.4l-0.9,0l-0.3-1.2L24.7,9.2z M26,8.7l-0.3-1.1
		c-0.1-0.3-0.1-0.6-0.2-0.8l0,0c-0.1,0.2-0.2,0.5-0.3,0.8l-0.4,1L26,8.7z"/>
	<path class="st2" d="M35,8.5l-1.1-0.4L34,7.5l3,1l-0.2,0.6l-1.2-0.4l-1.1,3.3l-0.7-0.2L35,8.5z"/>
	<g id="fill">
		<path class="st0" d="M29.7,23.6L8.2,33.2l13.4-7.8L18.8,24l21.4-10.2c-0.5,0.3-14,8.3-14,8.3L29.7,23.6z"/>
		<path class="st2" d="M31.6,7.4l0.7,0.2l0.3-0.3L30,6.7L29.7,7l0.5,0.1c0.5,0.1,0.8,0.3,0.9,0.6l-1.2-0.3l-0.3,0.3L31,8.1
			c-0.1,0.4-0.6,0.6-1.2,0.4l-0.3-0.1l-0.1,0.4l1.1,2.1l0.7,0.2c-0.4-0.7-0.8-1.5-1.2-2.2c0.7,0.1,1.3-0.1,1.5-0.7l0.5,0.1L32.4,8
			l-0.7-0.2C31.7,7.7,31.6,7.5,31.6,7.4"/>
	</g>
	<g>
		<path class="st2" d="M13.5,35.8l0.7,0.3l-1.1,2.5c-0.5,1.1-1.1,1.2-1.9,0.9c-0.2-0.1-0.4-0.2-0.5-0.3l0.3-0.5
			c0.1,0.1,0.2,0.2,0.4,0.2c0.4,0.2,0.7,0.1,1-0.6L13.5,35.8z"/>
		<path class="st2" d="M19,39.5c-0.2,1.4-1.2,2.1-2.4,1.9c-1.2-0.2-1.7-1.2-1.5-2.4c0.2-1.3,1.2-2.1,2.3-1.9
			C18.6,37.3,19.2,38.3,19,39.5z M15.9,39.1c-0.1,0.9,0.2,1.6,0.9,1.7c0.7,0.1,1.3-0.5,1.4-1.4c0.1-0.8-0.1-1.6-0.9-1.7
			C16.6,37.6,16,38.3,15.9,39.1z"/>
		<path class="st2" d="M21.9,38.1l-0.1,2.5c0,0.8,0.3,1.2,0.8,1.3c0.5,0,0.9-0.3,0.9-1.2l0.1-2.5l0.7,0l-0.1,2.4
			c-0.1,1.3-0.7,1.9-1.7,1.8c-0.9,0-1.5-0.6-1.4-2l0.1-2.4L21.9,38.1z"/>
		<path class="st2" d="M26.3,38.2l0.8,0l0.3,3.6l1.7-0.1l0,0.6l-2.5,0.2L26.3,38.2z"/>
		<path class="st2" d="M33.1,39.2l-1.4,0.3l0.3,1.2l1.6-0.4l0.1,0.6l-2.3,0.5l-0.9-4l2.2-0.5l0.1,0.6l-1.5,0.3l0.2,1l1.4-0.3
			L33.1,39.2z"/>
		<path class="st2" d="M35.7,39.4c0.3,0,0.7,0,1-0.1c0.4-0.2,0.6-0.5,0.5-0.8c-0.1-0.3-0.4-0.4-0.9-0.4c-0.7,0-1.2-0.2-1.5-0.7
			c-0.3-0.6,0.1-1.3,0.9-1.6c0.4-0.2,0.7-0.2,1-0.2l0.1,0.6c-0.2,0-0.5,0-0.8,0.1c-0.4,0.2-0.5,0.5-0.4,0.7c0.1,0.3,0.4,0.4,1,0.4
			c0.8,0,1.2,0.2,1.4,0.8c0.3,0.6,0,1.3-0.9,1.7c-0.4,0.2-0.8,0.2-1.1,0.2L35.7,39.4z"/>
	</g>
</g>
</svg>
