<?xml version="1.0" encoding="utf-8"?>
<!-- Generator: Adobe Illustrator 21.0.0, SVG Export Plug-In . SVG Version: 6.00 Build 0)  -->
<svg version="1.1" id="Layer_1" xmlns="http://www.w3.org/2000/svg" xmlns:xlink="http://www.w3.org/1999/xlink" x="0px" y="0px"
	 viewBox="0 0 20.9 17" style="enable-background:new 0 0 20.9 17;" xml:space="preserve">
<style type="text/css">
	.st0{fill:#F3F3F3;}
	.st1{fill:#FBB03B;}
</style>
<g>
	<g>
		<line class="st0" x1="1.4" y1="1.5" x2="19.4" y2="1.5"/>
		<g>
			<path class="st1" d="M1.4,3c6,0,12,0,18,0c1.9,0,1.9-3,0-3c-6,0-12,0-18,0C-0.5,0-0.5,3,1.4,3L1.4,3z"/>
		</g>
	</g>
	<g>
		<line class="st0" x1="1.4" y1="8.5" x2="19.4" y2="8.5"/>
		<g>
			<path class="st1" d="M1.4,10c6,0,12,0,18,0c1.9,0,1.9-3,0-3c-6,0-12,0-18,0C-0.5,7-0.5,10,1.4,10L1.4,10z"/>
		</g>
	</g>
	<g>
		<line class="st0" x1="1.4" y1="15.5" x2="19.4" y2="15.5"/>
		<g>
			<path class="st1" d="M1.4,17c6,0,12,0,18,0c1.9,0,1.9-3,0-3c-6,0-12,0-18,0C-0.5,14-0.5,17,1.4,17L1.4,17z"/>
		</g>
	</g>
</g>
</svg>
