<?xml version="1.0" encoding="utf-8"?>
<!-- Generator: Adobe Illustrator 21.0.0, SVG Export Plug-In . SVG Version: 6.00 Build 0)  -->
<svg version="1.1" id="Layer_1" xmlns="http://www.w3.org/2000/svg" xmlns:xlink="http://www.w3.org/1999/xlink" x="0px" y="0px"
	 viewBox="0 0 36.6 20.3" style="enable-background:new 0 0 36.6 20.3;" xml:space="preserve">
<style type="text/css">
	.st0{fill:#E6E6E6;}
	.st1{fill:#CCCCCC;}
	.st2{fill:#D8D8D8;}
	.st3{fill:#FFFFFF;}
	.st4{opacity:0.78;fill:#FBB03B;}
	.st5{opacity:0.33;fill:url(#SVGID_1_);}
</style>
<g>
	<g>
		<path class="st0" d="M36.6,10.1c0,5.6-4.5,10.1-10.1,10.1H10.1C4.5,20.3,0,15.7,0,10.1l0,0C0,4.5,4.5,0,10.1,0h16.4
			C32.1,0,36.6,4.5,36.6,10.1L36.6,10.1z"/>
		<path class="st1" d="M0.9,11.7C0.9,6.1,5.4,1.6,11,1.6h16.4c3.5,0,6.5,1.7,8.4,4.4c-1.6-3.5-5.1-5.9-9.2-5.9H10.2
			C4.6,0.2,0.1,4.7,0.1,10.3c0,2.1,0.7,4.1,1.8,5.7C1.2,14.7,0.9,13.3,0.9,11.7z"/>
	</g>
	<g>
		<circle class="st2" cx="27.3" cy="10.8" r="8.7"/>
		<circle class="st3" cx="26.6" cy="10.1" r="8.7"/>
		<circle class="st4" cx="26.6" cy="10.1" r="7.6"/>
		<circle class="st3" cx="26.6" cy="10.1" r="6"/>
		<linearGradient id="SVGID_1_" gradientUnits="userSpaceOnUse" x1="23.1209" y1="10.1481" x2="30.1605" y2="10.1481">
			<stop  offset="0" style="stop-color:#FFFFFF"/>
			<stop  offset="1" style="stop-color:#CFCFCF"/>
		</linearGradient>
		<circle class="st5" cx="26.6" cy="10.1" r="3.5"/>
	</g>
</g>
</svg>
