<?xml version="1.0" encoding="utf-8"?>
<!-- Generator: Adobe Illustrator 21.0.0, SVG Export Plug-In . SVG Version: 6.00 Build 0)  -->
<svg version="1.1" id="Layer_1" xmlns="http://www.w3.org/2000/svg" xmlns:xlink="http://www.w3.org/1999/xlink" x="0px" y="0px"
	 viewBox="0 0 19.7 18" style="enable-background:new 0 0 19.7 18;" xml:space="preserve">
<style type="text/css">
	.st0{fill:#FBB03B;}
</style>
<path class="st0" d="M19.1,15.3l-4.7-3.6c-0.5-0.4-1-0.6-1.4-0.6c1.1-1.2,1.8-2.7,1.8-4.4C14.8,3,11.5,0,7.4,0S0,3,0,6.7
	s3.3,6.7,7.4,6.7c1.8,0,3.5-0.6,4.8-1.6c0,0.4,0.2,0.9,0.6,1.3l4,4.3c0.7,0.7,1.8,0.7,2.5,0.1C19.9,16.9,19.8,15.9,19.1,15.3
	L19.1,15.3z M7.4,11.2c-2.7,0-4.9-2-4.9-4.5s2.2-4.5,4.9-4.5s4.9,2,4.9,4.5S10.1,11.2,7.4,11.2z"/>
</svg>
