<?xml version="1.0" encoding="utf-8"?>
<!-- Generator: Adobe Illustrator 21.0.0, SVG Export Plug-In . SVG Version: 6.00 Build 0)  -->
<svg version="1.1" id="Layer_1" xmlns="http://www.w3.org/2000/svg" xmlns:xlink="http://www.w3.org/1999/xlink" x="0px" y="0px"
	 viewBox="0 0 56.7 47.9" style="enable-background:new 0 0 56.7 47.9;" xml:space="preserve">
<style type="text/css">
	.st0{fill-rule:evenodd;clip-rule:evenodd;fill:#FBB03B;}
	.st1{fill:#FBB03B;}
</style>
<g>
	<path class="st0" d="M23.7,47.9H9.6c-2.6,0-5-1.1-6.8-2.8C1.1,43.3,0,40.9,0,38.3V17.5h1.7v20.8c0,2.2,0.9,4.1,2.3,5.5
		c1.4,1.4,3.4,2.3,5.5,2.3h14.1V47.9L23.7,47.9z M12,0v1.7h35.2c2.2,0,4.1,0.9,5.5,2.3C54.1,5.5,55,7.4,55,9.6v28.7
		c0,2.2-0.9,4.1-2.3,5.5c-1.4,1.4-3.4,2.3-5.5,2.3h-4.4v1.7h4.4c2.6,0,5-1.1,6.8-2.8c1.7-1.7,2.8-4.1,2.8-6.8V9.6
		c0-2.6-1.1-5-2.8-6.8C52.2,1.1,49.8,0,47.2,0H12z"/>
	<path class="st1" d="M42.1,12.9C42.1,12.9,42.1,12.9,42.1,12.9l0,24c0,0,0,0,0,0h-28c0,0,0,0,0,0v-24c0,0,0,0,0,0H42.1z M42.1,10.9
		h-28c-1.1,0-2,0.9-2,2v24c0,1.1,0.9,2,2,2h28c1.1,0,2-0.9,2-2v-24C44.1,11.8,43.2,10.9,42.1,10.9L42.1,10.9z"/>
	<path class="st1" d="M38.1,17.9c0,1.7-1.3,3-3,3c-1.7,0-3-1.3-3-3c0-1.7,1.3-3,3-3C36.8,14.9,38.1,16.2,38.1,17.9z"/>
	<path class="st1" d="M40.1,34.9h-24v-4l7-12l8,10h2l7-6V34.9z"/>
</g>
</svg>
