<?xml version="1.0" encoding="utf-8"?>
<!-- Generator: Adobe Illustrator 21.0.0, SVG Export Plug-In . SVG Version: 6.00 Build 0)  -->
<svg version="1.1" id="Layer_1" xmlns="http://www.w3.org/2000/svg" xmlns:xlink="http://www.w3.org/1999/xlink" x="0px" y="0px"
	 viewBox="0 0 18.7 30.3" style="enable-background:new 0 0 18.7 30.3;" xml:space="preserve">
<style type="text/css">
	.st0{fill-rule:evenodd;clip-rule:evenodd;fill:#FBB03B;}
</style>
<path class="st0" d="M11.5,20.7c0.6,0.5,1.2,1.1,1.6,1.8c0.4,0.8,0.7,1.6,0.7,2.5c0,1.5-0.6,2.8-1.6,3.7c-1,1-2.3,1.6-3.7,1.6
	c-1.5,0-2.8-0.6-3.7-1.6c-1-1-1.6-2.3-1.6-3.7c0-0.9,0.2-1.8,0.7-2.5c0.4-0.7,0.9-1.3,1.6-1.8V7.6c0-0.9,0.3-1.6,0.9-2.2
	c0.6-0.6,1.3-0.9,2.2-0.9c0.8,0,1.6,0.3,2.2,0.9c0.6,0.6,0.9,1.3,0.9,2.2v2.3h1.3v1h-1.3v1h1.3v1h-1.3v1h1.3v1h-1.3V20.7L11.5,20.7z
	 M3.8,4.6l0.7-0.7L2.7,1.9L1.9,2.7L3.8,4.6L3.8,4.6z M2.7,8.4H0v-1h2.7V8.4L2.7,8.4z M7.4,2.7V0h1v2.7H7.4L7.4,2.7z M5.4,23.2
	c-0.3,0.5-0.5,1.2-0.5,1.8c0,1.9,1.6,3.5,3.5,3.5c1.9,0,3.5-1.6,3.5-3.5c0-0.6-0.2-1.3-0.5-1.8H5.4L5.4,23.2z M9.3,14h1.2v-1H9.3v-1
	h1.2v-1H9.3v-1h1.2V7.6c0-0.6-0.2-1.1-0.6-1.4C9.5,5.8,9,5.6,8.4,5.6C7.9,5.6,7.4,5.8,7,6.2C6.6,6.6,6.4,7.1,6.4,7.6v13.6l-0.2,0.2
	c-0.6,0.4-1.1,0.9-1.4,1.5c-0.3,0.6-0.5,1.3-0.5,2c0,1.2,0.5,2.2,1.2,3c0.8,0.8,1.8,1.2,3,1.2c1.2,0,2.2-0.5,3-1.2
	c0.8-0.8,1.2-1.8,1.2-3c0-0.7-0.2-1.4-0.5-2c-0.3-0.6-0.8-1.2-1.4-1.5l-0.2-0.2v-6.2H9.3V14L9.3,14z M16.5,4.5
	c0.6,0,1.2,0.3,1.6,0.7v0c0.4,0.4,0.7,1,0.7,1.6c0,0.6-0.3,1.2-0.7,1.6l0,0c-0.4,0.4-1,0.7-1.6,0.7c-0.6,0-1.2-0.3-1.6-0.7
	c-0.4-0.4-0.7-1-0.7-1.6c0-0.6,0.3-1.2,0.7-1.6C15.3,4.8,15.9,4.5,16.5,4.5L16.5,4.5z M17.3,5.9L17.3,5.9c-0.2-0.2-0.5-0.4-0.9-0.4
	c-0.3,0-0.6,0.1-0.9,0.4c-0.2,0.2-0.4,0.5-0.4,0.9c0,0.3,0.1,0.6,0.4,0.9C15.8,7.9,16.1,8,16.5,8c0.3,0,0.6-0.1,0.9-0.4v0
	c0.2-0.2,0.4-0.5,0.4-0.9C17.7,6.5,17.6,6.2,17.3,5.9z"/>
</svg>
