<?xml version="1.0" encoding="utf-8"?>
<!-- Generator: Adobe Illustrator 21.0.0, SVG Export Plug-In . SVG Version: 6.00 Build 0)  -->
<svg version="1.1" id="Layer_1" xmlns="http://www.w3.org/2000/svg" xmlns:xlink="http://www.w3.org/1999/xlink" x="0px" y="0px"
	 viewBox="0 0 7 7" style="enable-background:new 0 0 7 7;" xml:space="preserve">
<style type="text/css">
	.st0{fill:#FBB03B;}
</style>
<path class="st0" d="M3.5,0C1.6,0,0,1.6,0,3.5S1.6,7,3.5,7C5.4,7,7,5.4,7,3.5S5.4,0,3.5,0z M5.5,4.7c0.1-0.3,0.1-0.6,0.1-0.9h0.9
	c0,0.3-0.1,0.6-0.2,0.9H5.5z M1.5,2.3C1.5,2.6,1.4,2.9,1.4,3.3H0.5c0-0.3,0.1-0.6,0.2-0.9H1.5z M5,2.3c0.1,0.3,0.1,0.6,0.1,0.9H3.7
	V2.3H5z M3.7,1.9V0.5c0.1,0,0.2,0.1,0.3,0.2C4.2,0.8,4.4,1,4.6,1.3c0.1,0.2,0.2,0.4,0.3,0.6H3.7L3.7,1.9z M2.4,1.3
	C2.6,1,2.8,0.8,3,0.7c0.1-0.1,0.2-0.1,0.3-0.2v1.4H2.1C2.2,1.6,2.3,1.4,2.4,1.3L2.4,1.3z M3.3,2.3v0.9H1.9c0-0.3,0.1-0.6,0.1-0.9
	H3.3z M0.7,4.7C0.6,4.4,0.5,4.1,0.5,3.7h0.9c0,0.3,0.1,0.6,0.1,0.9H0.7z M1.9,3.7h1.4v0.9H2C1.9,4.4,1.9,4.1,1.9,3.7z M3.3,5.1v1.4
	C3.2,6.5,3.1,6.4,3,6.3C2.8,6.2,2.6,6,2.4,5.7C2.3,5.6,2.2,5.4,2.1,5.1H3.3z M4.6,5.7C4.4,6,4.2,6.2,4,6.3C3.9,6.4,3.8,6.5,3.7,6.5
	V5.1h1.1C4.8,5.4,4.7,5.6,4.6,5.7z M3.7,4.7V3.7h1.4c0,0.3-0.1,0.6-0.1,0.9H3.7z M5.6,3.3c0-0.3-0.1-0.6-0.1-0.9h0.8
	c0.1,0.3,0.2,0.6,0.2,0.9H5.6z M6.1,1.9H5.4C5.2,1.4,5,1.1,4.8,0.8c0.3,0.1,0.6,0.3,0.8,0.6C5.8,1.5,5.9,1.7,6.1,1.9z M1.4,1.4
	c0.2-0.2,0.5-0.4,0.8-0.6C2,1.1,1.8,1.4,1.6,1.9H0.9C1.1,1.7,1.2,1.5,1.4,1.4z M0.9,5.1h0.7C1.8,5.6,2,5.9,2.2,6.2
	C1.9,6.1,1.6,5.9,1.4,5.6C1.2,5.5,1.1,5.3,0.9,5.1z M5.6,5.6C5.4,5.9,5.1,6.1,4.8,6.2C5,5.9,5.2,5.6,5.4,5.1h0.7
	C5.9,5.3,5.8,5.5,5.6,5.6z"/>
</svg>
