<?xml version="1.0" encoding="utf-8"?>
<!-- Generator: Adobe Illustrator 21.0.0, SVG Export Plug-In . SVG Version: 6.00 Build 0)  -->
<svg version="1.1" id="Layer_1" xmlns="http://www.w3.org/2000/svg" xmlns:xlink="http://www.w3.org/1999/xlink" x="0px" y="0px"
	 viewBox="0 0 23.4 26.7" style="enable-background:new 0 0 23.4 26.7;" xml:space="preserve">
<style type="text/css">
	.st0{fill:#FBB03B;}
	.st1{font-family:'MyriadPro-Regular';}
	.st2{font-size:11.4855px;}
	.st3{font-size:6px;}
</style>
<path class="st0" d="M22.6,3.3H15C15,1.5,13.5,0,11.7,0S8.4,1.5,8.4,3.3H0.8C0.4,3.3,0,3.7,0,4.2v21.7c0,0.5,0.4,0.8,0.8,0.8h21.7
	c0.5,0,0.8-0.4,0.8-0.8V4.2C23.4,3.7,23,3.3,22.6,3.3z M11.7,1.7c0.9,0,1.7,0.7,1.7,1.7S12.6,5,11.7,5C10.8,5,10,4.3,10,3.3
	S10.8,1.7,11.7,1.7z M21.7,25.1H1.7V5H5v2.5C5,8,5.4,8.4,5.9,8.4h11.7c0.5,0,0.8-0.4,0.8-0.8V5h3.3V25.1z"/>
<g>
	<text transform="matrix(1 0 0 1 4.3504 21.6406)" class="st0 st1 st2">7</text>
</g>
<g>
	<text transform="matrix(1 0 0 1 8.9256 21.6309)" class="st0 st1 st3">days</text>
</g>
</svg>
